Patient4_TMGait_0pt2_03_right_10_GRF.mot
version=1
nRows=32
nColumns=19
inDegrees=no
endheader
time	F1x	F1y	F1z	M1x	M1y	M1z	F2x	F2y	F2z	M2x	M2y	M2z	EC1x	EC1y	EC1z	EC2x	EC2y	EC2z
21.34	-6.0144	802.7009	63.546	-267.2904	-63.7339	801.6257	1.627	71.7163	-6.6749	24.4336	6.6017	63.8623	-0.0592	0.0182	-0.0073	-0.0462	0.0165	0.9585
21.3619	-6.8573	831.2082	67.5581	-276.3161	-67.7498	828.904	-0.87442	61.2639	-5.7018	20.9352	6.2639	54.6409	-0.0592	0.0182	-0.0073	-0.0462	0.0165	0.9585
21.3837	-7.7974	858.4556	71.6968	-284.8518	-71.7889	854.4853	-3.0092	49.8171	-4.643	17.0765	5.7616	44.5333	-0.0592	0.0182	-0.0073	-0.0462	0.0165	0.9585
21.4056	-8.617	879.8054	75.4297	-291.3992	-75.2584	873.7927	-4.471	38.3485	-3.5856	13.1872	5.0876	34.4047	-0.0592	0.0182	-0.0073	-0.0462	0.0165	0.9585
21.4274	-9.088	891.2384	78.2782	-294.6713	-77.6283	882.9215	-5.097	27.7387	-2.6133	9.5705	4.265	25.0355	-0.0592	0.0182	-0.0073	-0.0462	0.0165	0.9585
21.4493	-9.0417	890.3553	79.8882	-293.9141	-78.5181	879.6028	-4.9233	18.6666	-1.7994	6.4643	3.3656	17.0204	-0.0592	0.0182	-0.0073	-0.0462	0.0165	0.9585
21.4711	-8.3684	876.9685	80.0651	-289.1035	-77.7299	863.7468	-4.2451	11.5537	-1.1782	4.0183	2.5106	10.7231	-0.0592	0.0182	-0.0073	-0.0462	0.0165	0.9585
21.493	-7.0099	853.1452	78.7935	-280.9574	-75.2623	837.4488	-3.3839	6.4117	-0.74365	2.2432	1.793	6.1472	-0.0592	0.0182	-0.0073	-0.0462	0.0165	0.9585
21.5149	-4.9578	822.696	76.2285	-270.7629	-71.2976	804.4608	-2.539	2.9136	-0.46505	1.0334	1.2426	2.9906	-0.0592	0.0182	-0.0073	-0.0462	0.0165	0.9585
21.5367	-2.2492	790.2197	72.6667	-260.0568	-66.173	769.2561	-1.8086	0.57792	-0.29544	0.22862	0.84281	0.80942	-0.0592	0.0182	-0.0073	-0.0462	0.0165	0.9585
21.5586	1.0448	760.0993	68.5027	-250.2894	-60.3283	736.0646	-1.2188	-1.097	-0.18502	-0.34051	0.54814	-0.85331	-0.0592	0.0182	-0.0073	-0.0462	0.0165	0.9585
21.5804	4.8247	735.7814	64.1775	-242.5864	-54.2433	708.1983	-0.75247	-2.5448	-0.087536	-0.82112	0.30221	-2.3863	-0.0592	0.0182	-0.0073	-0.0462	0.0165	0.9585
21.6023	8.9676	719.3404	60.1317	-237.6063	-48.3846	687.6702	-0.37181	-4.0725	0.035065	-1.3175	0.051516	-4.0566	-0.0592	0.0182	-0.0073	-0.0462	0.0165	0.9585
21.6241	13.3217	711.2806	56.7642	-235.4723	-43.1688	675.0232	-0.035968	-5.8024	0.21179	-1.8737	-0.24719	-5.9492	-0.0592	0.0182	-0.0073	-0.0462	0.0165	0.9585
21.646	17.7127	710.6457	54.3891	-235.814	-38.9282	669.4459	0.28505	-7.6116	0.45874	-2.455	-0.62074	-7.9059	-0.0592	0.0182	-0.0073	-0.0462	0.0165	0.9585
21.6679	21.9572	715.3847	53.202	-237.8939	-35.8843	669.1283	0.59825	-9.0678	0.77518	-2.9268	-1.0666	-9.4451	-0.0592	0.0182	-0.0073	-0.0462	0.0165	0.9585
21.6897	25.87	722.8348	53.2584	-240.7743	-34.1349	671.7156	0.87587	-9.3693	1.1343	-3.0343	-1.537	-9.6961	-0.0592	0.0182	-0.0073	-0.0462	0.0165	0.9585
21.7116	29.2746	730.2382	54.4673	-243.4939	-33.6522	674.7762	1.0453	-7.294	1.4667	-2.3839	-1.9233	-7.3504	-0.0592	0.0182	-0.0073	-0.0462	0.0165	0.9585
21.7334	32.0149	735.0728	56.5994	-245.186	-34.2907	676.0887	0.97871	-1.1915	1.6476	-0.44233	-2.0405	-0.65439	-0.0592	0.0182	-0.0073	-0.0462	0.0165	0.9585
21.7553	33.9582	735.136	59.301	-245.1107	-35.7972	673.7007	0.48375	10.9305	1.4859	3.4364	-1.615	12.493	-0.0592	0.0182	-0.0073	-0.0462	0.0165	0.9585
21.7771	34.9888	728.5468	62.1056	-242.6558	-37.8182	665.9264	-0.6908	31.1648	0.72203	9.9338	-0.28018	34.2768	-0.0592	0.0182	-0.0073	-0.0462	0.0165	0.9585
21.799	35.0003	713.7055	64.4569	-237.324	-39.9141	651.3121	-2.8337	61.2383	-0.96883	19.6196	2.4081	66.4617	-0.0592	0.0182	-0.0073	-0.0462	0.0165	0.9585
21.8209	33.9178	689.3128	65.7633	-228.7324	-41.5971	628.6522	-6.2185	101.7731	-3.943	32.713	6.9089	109.5986	-0.0592	0.0182	-0.0073	-0.0462	0.0165	0.9585
21.8427	31.7502	654.6409	65.5075	-216.6938	-42.4093	597.2278	-10.8777	151.4815	-8.4566	48.8149	13.4827	162.1725	-0.0592	0.0182	-0.0073	-0.0462	0.0165	0.9585
21.8646	28.636	610.0797	63.4074	-201.3874	-42.0466	557.2957	-16.2974	206.903	-14.5453	66.8127	21.9538	220.3435	-0.0592	0.0182	-0.0073	-0.0462	0.0165	0.9585
21.8864	24.8641	557.6111	59.5392	-183.5129	-40.4575	510.5159	-21.5628	263.6049	-21.5949	85.3012	31.3338	279.2437	-0.0592	0.0182	-0.0073	-0.0462	0.0165	0.9585
21.9083	20.8742	500.7975	54.3218	-164.284	-37.8276	459.9341	-25.9018	318.2862	-28.5366	103.2649	40.2409	335.2813	-0.0592	0.0182	-0.0073	-0.0462	0.0165	0.9585
21.9301	17.1576	443.9031	48.3587	-145.135	-34.4772	409.2141	-28.8431	369.257	-34.4735	120.1905	47.5978	386.6931	-0.0592	0.0182	-0.0073	-0.0462	0.0165	0.9585
21.952	14.0793	390.5044	42.2172	-127.2599	-30.7371	361.44	-30.2291	415.5491	-39.0105	135.7443	52.9551	432.6	-0.0592	0.0182	-0.0073	-0.0462	0.0165	0.9585
21.9739	11.797	342.5959	36.3147	-111.3129	-26.8811	318.3396	-30.2168	456.4607	-42.136	149.6291	56.3611	472.4945	-0.0592	0.0182	-0.0073	-0.0462	0.0165	0.9585
21.9957	10.3028	300.5957	30.9178	-97.413	-23.1159	280.2817	-29.1924	491.7235	-44.0647	161.6664	58.1708	506.3559	-0.0592	0.0182	-0.0073	-0.0462	0.0165	0.9585
22.0176	9.4963	263.8902	26.1567	-85.3326	-19.5784	246.7504	-27.6099	521.7643	-45.1243	171.9153	58.8763	534.8448	-0.0592	0.0182	-0.0073	-0.0462	0.0165	0.9585
